<svg width="185" height="69" viewBox="0 0 185 69" fill="none" xmlns="http://www.w3.org/2000/svg">
<path d="M130.48 30.9199V26.9199L154.48 26.9199V30.9199L130.48 30.9199Z" fill="black"/>
<path d="M113.691 26.46C111.903 26.46 110.337 26.01 108.993 25.11C107.649 24.21 106.599 22.986 105.843 21.438C105.099 19.89 104.727 18.144 104.727 16.2C104.727 14.22 105.105 12.462 105.861 10.926C106.629 9.378 107.703 8.16 109.083 7.272C110.463 6.384 112.083 5.94 113.943 5.94C115.791 5.94 117.345 6.39 118.605 7.29C119.865 8.19 120.819 9.414 121.467 10.962C122.115 12.51 122.439 14.256 122.439 16.2C122.439 18.144 122.109 19.89 121.449 21.438C120.801 22.986 119.829 24.21 118.533 25.11C117.237 26.01 115.623 26.46 113.691 26.46ZM114.483 22.104C115.575 22.104 116.445 21.858 117.093 21.366C117.753 20.874 118.227 20.184 118.515 19.296C118.803 18.408 118.947 17.376 118.947 16.2C118.947 15.024 118.803 13.992 118.515 13.104C118.227 12.216 117.765 11.526 117.129 11.034C116.505 10.542 115.683 10.296 114.663 10.296C113.571 10.296 112.671 10.566 111.963 11.106C111.267 11.634 110.751 12.348 110.415 13.248C110.079 14.136 109.911 15.12 109.911 16.2C109.911 17.292 110.073 18.288 110.397 19.188C110.721 20.076 111.219 20.784 111.891 21.312C112.563 21.84 113.427 22.104 114.483 22.104ZM118.947 25.92V12.6H118.335V0H123.267V25.92H118.947Z" fill="black"/>
<path d="M97.2391 25.9203V16.7403C97.2391 16.2963 97.2151 15.7323 97.1671 15.0483C97.1191 14.3523 96.9691 13.6563 96.7171 12.9603C96.4651 12.2643 96.0511 11.6823 95.4751 11.2143C94.9111 10.7463 94.1071 10.5123 93.0631 10.5123C92.6431 10.5123 92.1931 10.5783 91.7131 10.7103C91.2331 10.8423 90.7831 11.1003 90.3631 11.4843C89.9431 11.8563 89.5951 12.4083 89.3191 13.1403C89.0551 13.8723 88.9231 14.8443 88.9231 16.0563L86.1151 14.7243C86.1151 13.1883 86.4271 11.7483 87.0511 10.4043C87.6751 9.0603 88.6111 7.9743 89.8591 7.1463C91.1191 6.3183 92.7031 5.9043 94.6111 5.9043C96.1351 5.9043 97.3771 6.1623 98.3371 6.6783C99.2971 7.1943 100.041 7.8483 100.569 8.6403C101.109 9.4323 101.493 10.2603 101.721 11.1243C101.949 11.9763 102.087 12.7563 102.135 13.4643C102.183 14.1723 102.207 14.6883 102.207 15.0123V25.9203H97.2391ZM83.9551 25.9203V6.4803H88.3111V12.9243H88.9231V25.9203H83.9551Z" fill="black"/>
<path d="M70.8885 26.4595C68.9325 26.4595 67.2165 26.0215 65.7405 25.1455C64.2645 24.2695 63.1125 23.0635 62.2845 21.5275C61.4685 19.9795 61.0605 18.2035 61.0605 16.1995C61.0605 14.1715 61.4805 12.3895 62.3205 10.8535C63.1605 9.30545 64.3185 8.09945 65.7945 7.23545C67.2705 6.37145 68.9685 5.93945 70.8885 5.93945C72.8445 5.93945 74.5606 6.37745 76.0366 7.25345C77.5246 8.12945 78.6826 9.34145 79.5106 10.8895C80.3386 12.4255 80.7525 14.1955 80.7525 16.1995C80.7525 18.2155 80.3326 19.9975 79.4926 21.5455C78.6646 23.0815 77.5065 24.2875 76.0185 25.1635C74.5425 26.0275 72.8326 26.4595 70.8885 26.4595ZM70.8885 21.8875C72.4605 21.8875 73.6306 21.3595 74.3986 20.3035C75.1786 19.2355 75.5686 17.8675 75.5686 16.1995C75.5686 14.4715 75.1725 13.0915 74.3805 12.0595C73.6005 11.0275 72.4366 10.5115 70.8885 10.5115C69.8205 10.5115 68.9446 10.7515 68.2606 11.2315C67.5766 11.7115 67.0665 12.3775 66.7305 13.2295C66.4065 14.0815 66.2446 15.0715 66.2446 16.1995C66.2446 17.9395 66.6346 19.3255 67.4146 20.3575C68.2066 21.3775 69.3645 21.8875 70.8885 21.8875Z" fill="black"/>
<path d="M45.517 34.5595L49.261 24.2635L49.333 27.2875L40.873 6.47949H45.949L51.637 21.2035H50.485L56.137 6.47949H61.033L50.053 34.5595H45.517Z" fill="black"/>
<path d="M31.239 26.4595C29.247 26.4595 27.489 26.0335 25.965 25.1815C24.453 24.3175 23.265 23.1355 22.401 21.6355C21.549 20.1235 21.123 18.3955 21.123 16.4515C21.123 14.3275 21.543 12.4795 22.383 10.9075C23.223 9.33545 24.381 8.11745 25.857 7.25345C27.333 6.37745 29.031 5.93945 30.951 5.93945C32.991 5.93945 34.725 6.41945 36.153 7.37945C37.581 8.33945 38.637 9.68945 39.321 11.4295C40.005 13.1695 40.245 15.2155 40.041 17.5675H35.199V15.7675C35.199 13.7875 34.881 12.3655 34.245 11.5015C33.621 10.6255 32.595 10.1875 31.167 10.1875C29.499 10.1875 28.269 10.6975 27.477 11.7175C26.697 12.7255 26.307 14.2195 26.307 16.1995C26.307 18.0115 26.697 19.4155 27.477 20.4115C28.269 21.3955 29.427 21.8875 30.951 21.8875C31.911 21.8875 32.733 21.6775 33.417 21.2575C34.101 20.8375 34.623 20.2315 34.983 19.4395L39.879 20.8435C39.147 22.6195 37.989 23.9995 36.405 24.9835C34.833 25.9675 33.111 26.4595 31.239 26.4595ZM24.795 17.5675V13.9315H37.683V17.5675H24.795Z" fill="black"/>
<path d="M0 25.92V0H10.368C12.216 0 13.71 0.372 14.85 1.116C15.99 1.848 16.824 2.772 17.352 3.888C17.88 5.004 18.144 6.132 18.144 7.272C18.144 8.724 17.814 9.93 17.154 10.89C16.506 11.85 15.612 12.492 14.472 12.816V11.916C16.092 12.252 17.304 13.002 18.108 14.166C18.924 15.33 19.332 16.632 19.332 18.072C19.332 19.62 19.044 20.982 18.468 22.158C17.904 23.334 17.04 24.258 15.876 24.93C14.712 25.59 13.248 25.92 11.484 25.92H0ZM4.968 21.312H10.98C11.64 21.312 12.228 21.174 12.744 20.898C13.26 20.61 13.662 20.214 13.95 19.71C14.25 19.194 14.4 18.588 14.4 17.892C14.4 17.28 14.274 16.734 14.022 16.254C13.77 15.774 13.386 15.396 12.87 15.12C12.366 14.832 11.736 14.688 10.98 14.688H4.968V21.312ZM4.968 10.116H10.296C10.848 10.116 11.34 10.02 11.772 9.828C12.204 9.636 12.546 9.342 12.798 8.946C13.05 8.538 13.176 8.016 13.176 7.38C13.176 6.588 12.93 5.922 12.438 5.382C11.946 4.842 11.232 4.572 10.296 4.572H4.968V10.116Z" fill="black"/>
<path d="M179.52 67.92V41.46H184.416V67.92H179.52Z" fill="black"/>
<path d="M164.291 68.4595C162.899 68.4595 161.717 68.1955 160.745 67.6675C159.785 67.1275 159.053 66.4135 158.549 65.5255C158.057 64.6255 157.811 63.6355 157.811 62.5555C157.811 61.6555 157.949 60.8335 158.225 60.0895C158.501 59.3455 158.945 58.6915 159.557 58.1275C160.181 57.5515 161.015 57.0715 162.059 56.6875C162.779 56.4235 163.637 56.1895 164.633 55.9855C165.629 55.7815 166.757 55.5895 168.017 55.4095C169.277 55.2175 170.663 55.0075 172.175 54.7795L170.411 55.7515C170.411 54.5995 170.135 53.7535 169.583 53.2135C169.031 52.6735 168.107 52.4035 166.811 52.4035C166.091 52.4035 165.341 52.5775 164.561 52.9255C163.781 53.2735 163.235 53.8915 162.923 54.7795L158.495 53.3755C158.987 51.7675 159.911 50.4595 161.267 49.4515C162.623 48.4435 164.471 47.9395 166.811 47.9395C168.527 47.9395 170.051 48.2035 171.383 48.7315C172.715 49.2595 173.723 50.1715 174.407 51.4675C174.791 52.1875 175.019 52.9075 175.091 53.6275C175.163 54.3475 175.199 55.1515 175.199 56.0395V67.9195H170.915V63.9235L171.527 64.7515C170.579 66.0595 169.553 67.0075 168.449 67.5955C167.357 68.1715 165.971 68.4595 164.291 68.4595ZM165.335 64.6075C166.235 64.6075 166.991 64.4515 167.603 64.1395C168.227 63.8155 168.719 63.4495 169.079 63.0415C169.451 62.6335 169.703 62.2915 169.835 62.0155C170.087 61.4875 170.231 60.8755 170.267 60.1795C170.315 59.4715 170.339 58.8835 170.339 58.4155L171.779 58.7755C170.327 59.0155 169.151 59.2195 168.251 59.3875C167.351 59.5435 166.625 59.6875 166.073 59.8195C165.521 59.9515 165.035 60.0955 164.615 60.2515C164.135 60.4435 163.745 60.6535 163.445 60.8815C163.157 61.0975 162.941 61.3375 162.797 61.6015C162.665 61.8655 162.599 62.1595 162.599 62.4835C162.599 62.9275 162.707 63.3115 162.923 63.6355C163.151 63.9475 163.469 64.1875 163.877 64.3555C164.285 64.5235 164.771 64.6075 165.335 64.6075Z" fill="black"/>
<path d="M149.973 67.9203V58.7403C149.973 58.2963 149.949 57.7323 149.901 57.0483C149.853 56.3523 149.703 55.6563 149.451 54.9603C149.199 54.2643 148.785 53.6823 148.209 53.2143C147.645 52.7463 146.841 52.5123 145.797 52.5123C145.377 52.5123 144.927 52.5783 144.447 52.7103C143.967 52.8423 143.517 53.1003 143.097 53.4843C142.677 53.8563 142.329 54.4083 142.053 55.1403C141.789 55.8723 141.657 56.8443 141.657 58.0563L138.849 56.7243C138.849 55.1883 139.161 53.7483 139.785 52.4043C140.409 51.0603 141.345 49.9743 142.593 49.1463C143.853 48.3183 145.437 47.9043 147.345 47.9043C148.869 47.9043 150.111 48.1623 151.071 48.6783C152.031 49.1943 152.775 49.8483 153.303 50.6403C153.843 51.4323 154.227 52.2603 154.455 53.1243C154.683 53.9763 154.821 54.7563 154.869 55.4643C154.917 56.1723 154.941 56.6883 154.941 57.0123V67.9203H149.973ZM136.689 67.9203V48.4803H141.045V54.9243H141.657V67.9203H136.689Z" fill="black"/>
<path d="M123.623 68.4595C121.667 68.4595 119.951 68.0215 118.475 67.1455C116.999 66.2695 115.847 65.0635 115.019 63.5275C114.203 61.9795 113.795 60.2035 113.795 58.1995C113.795 56.1715 114.215 54.3895 115.055 52.8535C115.895 51.3055 117.053 50.0995 118.529 49.2355C120.005 48.3715 121.703 47.9395 123.623 47.9395C125.579 47.9395 127.295 48.3775 128.771 49.2535C130.259 50.1295 131.417 51.3415 132.245 52.8895C133.073 54.4255 133.487 56.1955 133.487 58.1995C133.487 60.2155 133.067 61.9975 132.227 63.5455C131.399 65.0815 130.241 66.2875 128.753 67.1635C127.277 68.0275 125.567 68.4595 123.623 68.4595ZM123.623 63.8875C125.195 63.8875 126.365 63.3595 127.133 62.3035C127.913 61.2355 128.303 59.8675 128.303 58.1995C128.303 56.4715 127.907 55.0915 127.115 54.0595C126.335 53.0275 125.171 52.5115 123.623 52.5115C122.555 52.5115 121.679 52.7515 120.995 53.2315C120.311 53.7115 119.801 54.3775 119.465 55.2295C119.141 56.0815 118.979 57.0715 118.979 58.1995C118.979 59.9395 119.369 61.3255 120.149 62.3575C120.941 63.3775 122.099 63.8875 123.623 63.8875Z" fill="black"/>
<path d="M105.303 45.78V41.46H110.199V45.78H105.303ZM105.303 67.92V48.48H110.199V67.92H105.303Z" fill="black"/>
<path d="M101.33 67.9201C99.9859 68.1721 98.6659 68.2801 97.3699 68.2441C96.0859 68.2201 94.9339 67.9981 93.9139 67.5781C92.9059 67.1461 92.1379 66.4561 91.6099 65.5081C91.1299 64.6201 90.8779 63.7201 90.8539 62.8081C90.8299 61.8841 90.8179 60.8401 90.8179 59.6761V43.0801H95.7139V59.3881C95.7139 60.1441 95.7199 60.8281 95.7319 61.4401C95.7559 62.0401 95.8819 62.5201 96.1099 62.8801C96.5419 63.5641 97.2319 63.9361 98.1799 63.9961C99.1279 64.0561 100.178 64.0081 101.33 63.8521V67.9201ZM87.5059 52.2601V48.4801H101.33V52.2601H87.5059Z" fill="black"/>
<path d="M74.7984 68.4595C73.4064 68.4595 72.2244 68.1955 71.2524 67.6675C70.2924 67.1275 69.5604 66.4135 69.0564 65.5255C68.5644 64.6255 68.3184 63.6355 68.3184 62.5555C68.3184 61.6555 68.4564 60.8335 68.7324 60.0895C69.0084 59.3455 69.4524 58.6915 70.0644 58.1275C70.6884 57.5515 71.5224 57.0715 72.5664 56.6875C73.2864 56.4235 74.1444 56.1895 75.1404 55.9855C76.1364 55.7815 77.2644 55.5895 78.5244 55.4095C79.7844 55.2175 81.1704 55.0075 82.6824 54.7795L80.9184 55.7515C80.9184 54.5995 80.6424 53.7535 80.0904 53.2135C79.5384 52.6735 78.6144 52.4035 77.3184 52.4035C76.5984 52.4035 75.8484 52.5775 75.0684 52.9255C74.2884 53.2735 73.7424 53.8915 73.4304 54.7795L69.0024 53.3755C69.4944 51.7675 70.4184 50.4595 71.7744 49.4515C73.1304 48.4435 74.9784 47.9395 77.3184 47.9395C79.0344 47.9395 80.5584 48.2035 81.8904 48.7315C83.2224 49.2595 84.2304 50.1715 84.9144 51.4675C85.2984 52.1875 85.5264 52.9075 85.5984 53.6275C85.6704 54.3475 85.7064 55.1515 85.7064 56.0395V67.9195H81.4224V63.9235L82.0344 64.7515C81.0864 66.0595 80.0604 67.0075 78.9564 67.5955C77.8644 68.1715 76.4784 68.4595 74.7984 68.4595ZM75.8424 64.6075C76.7424 64.6075 77.4984 64.4515 78.1104 64.1395C78.7344 63.8155 79.2264 63.4495 79.5864 63.0415C79.9584 62.6335 80.2104 62.2915 80.3424 62.0155C80.5944 61.4875 80.7384 60.8755 80.7744 60.1795C80.8224 59.4715 80.8464 58.8835 80.8464 58.4155L82.2864 58.7755C80.8344 59.0155 79.6584 59.2195 78.7584 59.3875C77.8584 59.5435 77.1324 59.6875 76.5804 59.8195C76.0284 59.9515 75.5424 60.0955 75.1224 60.2515C74.6424 60.4435 74.2524 60.6535 73.9524 60.8815C73.6644 61.0975 73.4484 61.3375 73.3044 61.6015C73.1724 61.8655 73.1064 62.1595 73.1064 62.4835C73.1064 62.9275 73.2144 63.3115 73.4304 63.6355C73.6584 63.9475 73.9764 64.1875 74.3844 64.3555C74.7924 64.5235 75.2784 64.6075 75.8424 64.6075Z" fill="black"/>
<path d="M46 67.92V42H56.944C57.196 42 57.532 42.012 57.952 42.036C58.384 42.048 58.768 42.084 59.104 42.144C60.652 42.384 61.918 42.894 62.902 43.674C63.898 44.454 64.63 45.438 65.098 46.626C65.566 47.802 65.8 49.116 65.8 50.568C65.8 52.74 65.26 54.6 64.18 56.148C63.1 57.684 61.408 58.632 59.104 58.992L56.944 59.136H50.896V67.92H46ZM60.616 67.92L55.504 57.372L60.544 56.4L66.16 67.92H60.616ZM50.896 54.564H56.728C56.98 54.564 57.256 54.552 57.556 54.528C57.856 54.504 58.132 54.456 58.384 54.384C59.044 54.204 59.554 53.904 59.914 53.484C60.274 53.052 60.52 52.578 60.652 52.062C60.796 51.534 60.868 51.036 60.868 50.568C60.868 50.1 60.796 49.608 60.652 49.092C60.52 48.564 60.274 48.09 59.914 47.67C59.554 47.238 59.044 46.932 58.384 46.752C58.132 46.68 57.856 46.632 57.556 46.608C57.256 46.584 56.98 46.572 56.728 46.572H50.896V54.564Z" fill="black"/>
</svg>
