<svg xmlns="http://www.w3.org/2000/svg" viewBox="0 0 800 600" preserveAspectRatio="xMidYMid slice" role="img" aria-label="Wuud embossed graphite finish sample">
  <defs>
    <linearGradient id="base" x1="0" y1="0" x2="0.25" y2="1">
      <stop offset="0%" stop-color="#2a2a2a"/><stop offset="55%" stop-color="#131313"/><stop offset="100%" stop-color="#050505"/>
    </linearGradient>
    <filter id="sft" x="-20%" y="-20%" width="140%" height="140%"><feGaussianBlur stdDeviation="0.45"/></filter>
    <pattern id="dash" width="44" height="28" patternUnits="userSpaceOnUse"><g filter="url(#sft)"><rect x="3.55" y="-34.60" width="5.0" height="15.0" rx="2.5" ry="2.5" fill="#000000" opacity="0.42"/><rect x="2.45" y="-36.40" width="5.0" height="15.0" rx="2.5" ry="2.5" fill="#ffffff" opacity="0.34"/><rect x="3.55" y="-6.60" width="5.0" height="15.0" rx="2.5" ry="2.5" fill="#000000" opacity="0.42"/><rect x="2.45" y="-8.40" width="5.0" height="15.0" rx="2.5" ry="2.5" fill="#ffffff" opacity="0.34"/><rect x="3.55" y="21.40" width="5.0" height="15.0" rx="2.5" ry="2.5" fill="#000000" opacity="0.42"/><rect x="2.45" y="19.60" width="5.0" height="15.0" rx="2.5" ry="2.5" fill="#ffffff" opacity="0.34"/><rect x="14.55" y="-27.60" width="5.0" height="15.0" rx="2.5" ry="2.5" fill="#000000" opacity="0.42"/><rect x="13.45" y="-29.40" width="5.0" height="15.0" rx="2.5" ry="2.5" fill="#ffffff" opacity="0.34"/><rect x="14.55" y="0.40" width="5.0" height="15.0" rx="2.5" ry="2.5" fill="#000000" opacity="0.42"/><rect x="13.45" y="-1.40" width="5.0" height="15.0" rx="2.5" ry="2.5" fill="#ffffff" opacity="0.34"/><rect x="14.55" y="28.40" width="5.0" height="15.0" rx="2.5" ry="2.5" fill="#000000" opacity="0.42"/><rect x="13.45" y="26.60" width="5.0" height="15.0" rx="2.5" ry="2.5" fill="#ffffff" opacity="0.34"/><rect x="25.55" y="-20.60" width="5.0" height="15.0" rx="2.5" ry="2.5" fill="#000000" opacity="0.42"/><rect x="24.45" y="-22.40" width="5.0" height="15.0" rx="2.5" ry="2.5" fill="#ffffff" opacity="0.34"/><rect x="25.55" y="7.40" width="5.0" height="15.0" rx="2.5" ry="2.5" fill="#000000" opacity="0.42"/><rect x="24.45" y="5.60" width="5.0" height="15.0" rx="2.5" ry="2.5" fill="#ffffff" opacity="0.34"/><rect x="25.55" y="35.40" width="5.0" height="15.0" rx="2.5" ry="2.5" fill="#000000" opacity="0.42"/><rect x="24.45" y="33.60" width="5.0" height="15.0" rx="2.5" ry="2.5" fill="#ffffff" opacity="0.34"/><rect x="36.55" y="-13.60" width="5.0" height="15.0" rx="2.5" ry="2.5" fill="#000000" opacity="0.42"/><rect x="35.45" y="-15.40" width="5.0" height="15.0" rx="2.5" ry="2.5" fill="#ffffff" opacity="0.34"/><rect x="36.55" y="14.40" width="5.0" height="15.0" rx="2.5" ry="2.5" fill="#000000" opacity="0.42"/><rect x="35.45" y="12.60" width="5.0" height="15.0" rx="2.5" ry="2.5" fill="#ffffff" opacity="0.34"/><rect x="36.55" y="42.40" width="5.0" height="15.0" rx="2.5" ry="2.5" fill="#000000" opacity="0.42"/><rect x="35.45" y="40.60" width="5.0" height="15.0" rx="2.5" ry="2.5" fill="#ffffff" opacity="0.34"/></g></pattern>
    <radialGradient id="vig" cx="50%" cy="28%" r="85%">
      <stop offset="55%" stop-color="#000" stop-opacity="0"/><stop offset="100%" stop-color="#000" stop-opacity="0.26"/>
    </radialGradient>
  </defs>
  <rect width="800" height="600" fill="url(#base)"/>
  <rect width="800" height="600" fill="url(#dash)" opacity="0.9"/>
  <g stroke-width="1.2"><line x1="90" y1="0" x2="90" y2="600" stroke="#000" stroke-opacity="0.2"/><line x1="180" y1="0" x2="180" y2="600" stroke="#000" stroke-opacity="0.2"/><line x1="270" y1="0" x2="270" y2="600" stroke="#000" stroke-opacity="0.2"/><line x1="360" y1="0" x2="360" y2="600" stroke="#000" stroke-opacity="0.2"/><line x1="450" y1="0" x2="450" y2="600" stroke="#000" stroke-opacity="0.2"/><line x1="540" y1="0" x2="540" y2="600" stroke="#000" stroke-opacity="0.2"/><line x1="630" y1="0" x2="630" y2="600" stroke="#000" stroke-opacity="0.2"/><line x1="720" y1="0" x2="720" y2="600" stroke="#000" stroke-opacity="0.2"/></g>
  <rect width="800" height="600" fill="url(#vig)"/>
</svg>
