<svg xmlns="http://www.w3.org/2000/svg" width="44" height="28" viewBox="0 0 44 28"><defs><filter id="s" x="-20%" y="-20%" width="140%" height="140%"><feGaussianBlur stdDeviation="0.45"/></filter></defs><g filter="url(#s)"><rect x="3.55" y="-34.60" width="5.0" height="15.0" rx="2.5" ry="2.5" fill="#000000" opacity="0.42"/><rect x="2.45" y="-36.40" width="5.0" height="15.0" rx="2.5" ry="2.5" fill="#ffffff" opacity="0.34"/><rect x="3.55" y="-6.60" width="5.0" height="15.0" rx="2.5" ry="2.5" fill="#000000" opacity="0.42"/><rect x="2.45" y="-8.40" width="5.0" height="15.0" rx="2.5" ry="2.5" fill="#ffffff" opacity="0.34"/><rect x="3.55" y="21.40" width="5.0" height="15.0" rx="2.5" ry="2.5" fill="#000000" opacity="0.42"/><rect x="2.45" y="19.60" width="5.0" height="15.0" rx="2.5" ry="2.5" fill="#ffffff" opacity="0.34"/><rect x="14.55" y="-27.60" width="5.0" height="15.0" rx="2.5" ry="2.5" fill="#000000" opacity="0.42"/><rect x="13.45" y="-29.40" width="5.0" height="15.0" rx="2.5" ry="2.5" fill="#ffffff" opacity="0.34"/><rect x="14.55" y="0.40" width="5.0" height="15.0" rx="2.5" ry="2.5" fill="#000000" opacity="0.42"/><rect x="13.45" y="-1.40" width="5.0" height="15.0" rx="2.5" ry="2.5" fill="#ffffff" opacity="0.34"/><rect x="14.55" y="28.40" width="5.0" height="15.0" rx="2.5" ry="2.5" fill="#000000" opacity="0.42"/><rect x="13.45" y="26.60" width="5.0" height="15.0" rx="2.5" ry="2.5" fill="#ffffff" opacity="0.34"/><rect x="25.55" y="-20.60" width="5.0" height="15.0" rx="2.5" ry="2.5" fill="#000000" opacity="0.42"/><rect x="24.45" y="-22.40" width="5.0" height="15.0" rx="2.5" ry="2.5" fill="#ffffff" opacity="0.34"/><rect x="25.55" y="7.40" width="5.0" height="15.0" rx="2.5" ry="2.5" fill="#000000" opacity="0.42"/><rect x="24.45" y="5.60" width="5.0" height="15.0" rx="2.5" ry="2.5" fill="#ffffff" opacity="0.34"/><rect x="25.55" y="35.40" width="5.0" height="15.0" rx="2.5" ry="2.5" fill="#000000" opacity="0.42"/><rect x="24.45" y="33.60" width="5.0" height="15.0" rx="2.5" ry="2.5" fill="#ffffff" opacity="0.34"/><rect x="36.55" y="-13.60" width="5.0" height="15.0" rx="2.5" ry="2.5" fill="#000000" opacity="0.42"/><rect x="35.45" y="-15.40" width="5.0" height="15.0" rx="2.5" ry="2.5" fill="#ffffff" opacity="0.34"/><rect x="36.55" y="14.40" width="5.0" height="15.0" rx="2.5" ry="2.5" fill="#000000" opacity="0.42"/><rect x="35.45" y="12.60" width="5.0" height="15.0" rx="2.5" ry="2.5" fill="#ffffff" opacity="0.34"/><rect x="36.55" y="42.40" width="5.0" height="15.0" rx="2.5" ry="2.5" fill="#000000" opacity="0.42"/><rect x="35.45" y="40.60" width="5.0" height="15.0" rx="2.5" ry="2.5" fill="#ffffff" opacity="0.34"/></g></svg>