<svg xmlns="http://www.w3.org/2000/svg" viewBox="0 0 800 600" preserveAspectRatio="xMidYMid slice" role="img" aria-label="Wuud birch finish sample">
  <defs><linearGradient id="base" x1="0" y1="0" x2="0.25" y2="1"><stop offset="0%" stop-color="#ecdcc0"/><stop offset="55%" stop-color="#d2b58c"/><stop offset="100%" stop-color="#b1925f"/></linearGradient>
  <filter id="sft" x="-40%" y="-40%" width="180%" height="180%"><feGaussianBlur stdDeviation="0.35"/></filter>
  <pattern id="pl" width="72" height="30" patternUnits="userSpaceOnUse"><g filter="url(#sft)"><rect x="10.00" y="-33.70" width="5.0" height="9.0" rx="2.5" ry="2.5" fill="#000000" opacity="0.40"/><rect x="9.00" y="-35.30" width="5.0" height="9.0" rx="2.5" ry="2.5" fill="#ffffff" opacity="0.32"/><rect x="10.00" y="-3.70" width="5.0" height="9.0" rx="2.5" ry="2.5" fill="#000000" opacity="0.40"/><rect x="9.00" y="-5.30" width="5.0" height="9.0" rx="2.5" ry="2.5" fill="#ffffff" opacity="0.32"/><rect x="10.00" y="26.30" width="5.0" height="9.0" rx="2.5" ry="2.5" fill="#000000" opacity="0.40"/><rect x="9.00" y="24.70" width="5.0" height="9.0" rx="2.5" ry="2.5" fill="#ffffff" opacity="0.32"/><rect x="34.00" y="-23.70" width="5.0" height="9.0" rx="2.5" ry="2.5" fill="#000000" opacity="0.40"/><rect x="33.00" y="-25.30" width="5.0" height="9.0" rx="2.5" ry="2.5" fill="#ffffff" opacity="0.32"/><rect x="34.00" y="6.30" width="5.0" height="9.0" rx="2.5" ry="2.5" fill="#000000" opacity="0.40"/><rect x="33.00" y="4.70" width="5.0" height="9.0" rx="2.5" ry="2.5" fill="#ffffff" opacity="0.32"/><rect x="34.00" y="36.30" width="5.0" height="9.0" rx="2.5" ry="2.5" fill="#000000" opacity="0.40"/><rect x="33.00" y="34.70" width="5.0" height="9.0" rx="2.5" ry="2.5" fill="#ffffff" opacity="0.32"/><rect x="58.00" y="-13.70" width="5.0" height="9.0" rx="2.5" ry="2.5" fill="#000000" opacity="0.40"/><rect x="57.00" y="-15.30" width="5.0" height="9.0" rx="2.5" ry="2.5" fill="#ffffff" opacity="0.32"/><rect x="58.00" y="16.30" width="5.0" height="9.0" rx="2.5" ry="2.5" fill="#000000" opacity="0.40"/><rect x="57.00" y="14.70" width="5.0" height="9.0" rx="2.5" ry="2.5" fill="#ffffff" opacity="0.32"/><rect x="58.00" y="46.30" width="5.0" height="9.0" rx="2.5" ry="2.5" fill="#000000" opacity="0.40"/><rect x="57.00" y="44.70" width="5.0" height="9.0" rx="2.5" ry="2.5" fill="#ffffff" opacity="0.32"/><rect x="0" y="0" width="1.1" height="30" fill="#000000" opacity="0.22"/><rect x="1.1" y="0" width="0.8" height="30" fill="#ffffff" opacity="0.12"/></g></pattern>
  <radialGradient id="vig" cx="50%" cy="28%" r="85%"><stop offset="55%" stop-color="#000" stop-opacity="0"/><stop offset="100%" stop-color="#000" stop-opacity="0.26"/></radialGradient></defs>
  <rect width="800" height="600" fill="url(#base)"/><rect width="800" height="600" fill="url(#pl)" opacity="0.9"/><rect width="800" height="600" fill="url(#vig)"/>
</svg>
