<svg xmlns="http://www.w3.org/2000/svg" width="52" height="22" viewBox="0 0 52 22"><defs><filter id="s" x="-30%" y="-30%" width="160%" height="160%"><feGaussianBlur stdDeviation="0.4"/></filter></defs><g filter="url(#s)"><rect x="5.25" y="-24.80" width="3.4" height="7.0" rx="1.7" ry="1.7" fill="#000000" opacity="0.4"/><rect x="4.35" y="-26.20" width="3.4" height="7.0" rx="1.7" ry="1.7" fill="#ffffff" opacity="0.32"/><rect x="5.25" y="-2.80" width="3.4" height="7.0" rx="1.7" ry="1.7" fill="#000000" opacity="0.4"/><rect x="4.35" y="-4.20" width="3.4" height="7.0" rx="1.7" ry="1.7" fill="#ffffff" opacity="0.32"/><rect x="5.25" y="19.20" width="3.4" height="7.0" rx="1.7" ry="1.7" fill="#000000" opacity="0.4"/><rect x="4.35" y="17.80" width="3.4" height="7.0" rx="1.7" ry="1.7" fill="#ffffff" opacity="0.32"/><rect x="18.25" y="-19.30" width="3.4" height="7.0" rx="1.7" ry="1.7" fill="#000000" opacity="0.4"/><rect x="17.35" y="-20.70" width="3.4" height="7.0" rx="1.7" ry="1.7" fill="#ffffff" opacity="0.32"/><rect x="18.25" y="2.70" width="3.4" height="7.0" rx="1.7" ry="1.7" fill="#000000" opacity="0.4"/><rect x="17.35" y="1.30" width="3.4" height="7.0" rx="1.7" ry="1.7" fill="#ffffff" opacity="0.32"/><rect x="18.25" y="24.70" width="3.4" height="7.0" rx="1.7" ry="1.7" fill="#000000" opacity="0.4"/><rect x="17.35" y="23.30" width="3.4" height="7.0" rx="1.7" ry="1.7" fill="#ffffff" opacity="0.32"/><rect x="31.25" y="-13.80" width="3.4" height="7.0" rx="1.7" ry="1.7" fill="#000000" opacity="0.4"/><rect x="30.35" y="-15.20" width="3.4" height="7.0" rx="1.7" ry="1.7" fill="#ffffff" opacity="0.32"/><rect x="31.25" y="8.20" width="3.4" height="7.0" rx="1.7" ry="1.7" fill="#000000" opacity="0.4"/><rect x="30.35" y="6.80" width="3.4" height="7.0" rx="1.7" ry="1.7" fill="#ffffff" opacity="0.32"/><rect x="31.25" y="30.20" width="3.4" height="7.0" rx="1.7" ry="1.7" fill="#000000" opacity="0.4"/><rect x="30.35" y="28.80" width="3.4" height="7.0" rx="1.7" ry="1.7" fill="#ffffff" opacity="0.32"/><rect x="44.25" y="-8.30" width="3.4" height="7.0" rx="1.7" ry="1.7" fill="#000000" opacity="0.4"/><rect x="43.35" y="-9.70" width="3.4" height="7.0" rx="1.7" ry="1.7" fill="#ffffff" opacity="0.32"/><rect x="44.25" y="13.70" width="3.4" height="7.0" rx="1.7" ry="1.7" fill="#000000" opacity="0.4"/><rect x="43.35" y="12.30" width="3.4" height="7.0" rx="1.7" ry="1.7" fill="#ffffff" opacity="0.32"/><rect x="44.25" y="35.70" width="3.4" height="7.0" rx="1.7" ry="1.7" fill="#000000" opacity="0.4"/><rect x="43.35" y="34.30" width="3.4" height="7.0" rx="1.7" ry="1.7" fill="#ffffff" opacity="0.32"/></g></svg>