<svg xmlns="http://www.w3.org/2000/svg" width="84" height="30" viewBox="0 0 84 30"><rect x="4.70" y="-36.90" width="6.0" height="16.0" rx="3.0" ry="3.0" fill="#000000" opacity="0.38"/><rect x="3.30" y="-39.10" width="6.0" height="16.0" rx="3.0" ry="3.0" fill="#ffffff" opacity="0.32"/><rect x="4.70" y="-6.90" width="6.0" height="16.0" rx="3.0" ry="3.0" fill="#000000" opacity="0.38"/><rect x="3.30" y="-9.10" width="6.0" height="16.0" rx="3.0" ry="3.0" fill="#ffffff" opacity="0.32"/><rect x="4.70" y="23.10" width="6.0" height="16.0" rx="3.0" ry="3.0" fill="#000000" opacity="0.38"/><rect x="3.30" y="20.90" width="6.0" height="16.0" rx="3.0" ry="3.0" fill="#ffffff" opacity="0.32"/><rect x="18.70" y="-31.90" width="6.0" height="16.0" rx="3.0" ry="3.0" fill="#000000" opacity="0.38"/><rect x="17.30" y="-34.10" width="6.0" height="16.0" rx="3.0" ry="3.0" fill="#ffffff" opacity="0.32"/><rect x="18.70" y="-1.90" width="6.0" height="16.0" rx="3.0" ry="3.0" fill="#000000" opacity="0.38"/><rect x="17.30" y="-4.10" width="6.0" height="16.0" rx="3.0" ry="3.0" fill="#ffffff" opacity="0.32"/><rect x="18.70" y="28.10" width="6.0" height="16.0" rx="3.0" ry="3.0" fill="#000000" opacity="0.38"/><rect x="17.30" y="25.90" width="6.0" height="16.0" rx="3.0" ry="3.0" fill="#ffffff" opacity="0.32"/><rect x="32.70" y="-26.90" width="6.0" height="16.0" rx="3.0" ry="3.0" fill="#000000" opacity="0.38"/><rect x="31.30" y="-29.10" width="6.0" height="16.0" rx="3.0" ry="3.0" fill="#ffffff" opacity="0.32"/><rect x="32.70" y="3.10" width="6.0" height="16.0" rx="3.0" ry="3.0" fill="#000000" opacity="0.38"/><rect x="31.30" y="0.90" width="6.0" height="16.0" rx="3.0" ry="3.0" fill="#ffffff" opacity="0.32"/><rect x="32.70" y="33.10" width="6.0" height="16.0" rx="3.0" ry="3.0" fill="#000000" opacity="0.38"/><rect x="31.30" y="30.90" width="6.0" height="16.0" rx="3.0" ry="3.0" fill="#ffffff" opacity="0.32"/><rect x="46.70" y="-21.90" width="6.0" height="16.0" rx="3.0" ry="3.0" fill="#000000" opacity="0.38"/><rect x="45.30" y="-24.10" width="6.0" height="16.0" rx="3.0" ry="3.0" fill="#ffffff" opacity="0.32"/><rect x="46.70" y="8.10" width="6.0" height="16.0" rx="3.0" ry="3.0" fill="#000000" opacity="0.38"/><rect x="45.30" y="5.90" width="6.0" height="16.0" rx="3.0" ry="3.0" fill="#ffffff" opacity="0.32"/><rect x="46.70" y="38.10" width="6.0" height="16.0" rx="3.0" ry="3.0" fill="#000000" opacity="0.38"/><rect x="45.30" y="35.90" width="6.0" height="16.0" rx="3.0" ry="3.0" fill="#ffffff" opacity="0.32"/><rect x="60.70" y="-16.90" width="6.0" height="16.0" rx="3.0" ry="3.0" fill="#000000" opacity="0.38"/><rect x="59.30" y="-19.10" width="6.0" height="16.0" rx="3.0" ry="3.0" fill="#ffffff" opacity="0.32"/><rect x="60.70" y="13.10" width="6.0" height="16.0" rx="3.0" ry="3.0" fill="#000000" opacity="0.38"/><rect x="59.30" y="10.90" width="6.0" height="16.0" rx="3.0" ry="3.0" fill="#ffffff" opacity="0.32"/><rect x="60.70" y="43.10" width="6.0" height="16.0" rx="3.0" ry="3.0" fill="#000000" opacity="0.38"/><rect x="59.30" y="40.90" width="6.0" height="16.0" rx="3.0" ry="3.0" fill="#ffffff" opacity="0.32"/><rect x="74.70" y="-11.90" width="6.0" height="16.0" rx="3.0" ry="3.0" fill="#000000" opacity="0.38"/><rect x="73.30" y="-14.10" width="6.0" height="16.0" rx="3.0" ry="3.0" fill="#ffffff" opacity="0.32"/><rect x="74.70" y="18.10" width="6.0" height="16.0" rx="3.0" ry="3.0" fill="#000000" opacity="0.38"/><rect x="73.30" y="15.90" width="6.0" height="16.0" rx="3.0" ry="3.0" fill="#ffffff" opacity="0.32"/><rect x="74.70" y="48.10" width="6.0" height="16.0" rx="3.0" ry="3.0" fill="#000000" opacity="0.38"/><rect x="73.30" y="45.90" width="6.0" height="16.0" rx="3.0" ry="3.0" fill="#ffffff" opacity="0.32"/></svg>