<svg xmlns="http://www.w3.org/2000/svg" viewBox="0 0 800 600" preserveAspectRatio="xMidYMid slice" role="img" aria-label="Wuud oak finish sample">
  <defs><linearGradient id="base" x1="0" y1="0" x2="0.25" y2="1"><stop offset="0%" stop-color="#d9bb8d"/><stop offset="55%" stop-color="#b3884f"/><stop offset="100%" stop-color="#856134"/></linearGradient>
  <filter id="sft" x="-30%" y="-30%" width="160%" height="160%"><feGaussianBlur stdDeviation="0.4"/></filter>
  <pattern id="dash" width="52" height="22" patternUnits="userSpaceOnUse"><g filter="url(#sft)"><rect x="5.25" y="-24.80" width="3.4" height="7.0" rx="1.7" ry="1.7" fill="#000000" opacity="0.4"/><rect x="4.35" y="-26.20" width="3.4" height="7.0" rx="1.7" ry="1.7" fill="#ffffff" opacity="0.32"/><rect x="5.25" y="-2.80" width="3.4" height="7.0" rx="1.7" ry="1.7" fill="#000000" opacity="0.4"/><rect x="4.35" y="-4.20" width="3.4" height="7.0" rx="1.7" ry="1.7" fill="#ffffff" opacity="0.32"/><rect x="5.25" y="19.20" width="3.4" height="7.0" rx="1.7" ry="1.7" fill="#000000" opacity="0.4"/><rect x="4.35" y="17.80" width="3.4" height="7.0" rx="1.7" ry="1.7" fill="#ffffff" opacity="0.32"/><rect x="18.25" y="-19.30" width="3.4" height="7.0" rx="1.7" ry="1.7" fill="#000000" opacity="0.4"/><rect x="17.35" y="-20.70" width="3.4" height="7.0" rx="1.7" ry="1.7" fill="#ffffff" opacity="0.32"/><rect x="18.25" y="2.70" width="3.4" height="7.0" rx="1.7" ry="1.7" fill="#000000" opacity="0.4"/><rect x="17.35" y="1.30" width="3.4" height="7.0" rx="1.7" ry="1.7" fill="#ffffff" opacity="0.32"/><rect x="18.25" y="24.70" width="3.4" height="7.0" rx="1.7" ry="1.7" fill="#000000" opacity="0.4"/><rect x="17.35" y="23.30" width="3.4" height="7.0" rx="1.7" ry="1.7" fill="#ffffff" opacity="0.32"/><rect x="31.25" y="-13.80" width="3.4" height="7.0" rx="1.7" ry="1.7" fill="#000000" opacity="0.4"/><rect x="30.35" y="-15.20" width="3.4" height="7.0" rx="1.7" ry="1.7" fill="#ffffff" opacity="0.32"/><rect x="31.25" y="8.20" width="3.4" height="7.0" rx="1.7" ry="1.7" fill="#000000" opacity="0.4"/><rect x="30.35" y="6.80" width="3.4" height="7.0" rx="1.7" ry="1.7" fill="#ffffff" opacity="0.32"/><rect x="31.25" y="30.20" width="3.4" height="7.0" rx="1.7" ry="1.7" fill="#000000" opacity="0.4"/><rect x="30.35" y="28.80" width="3.4" height="7.0" rx="1.7" ry="1.7" fill="#ffffff" opacity="0.32"/><rect x="44.25" y="-8.30" width="3.4" height="7.0" rx="1.7" ry="1.7" fill="#000000" opacity="0.4"/><rect x="43.35" y="-9.70" width="3.4" height="7.0" rx="1.7" ry="1.7" fill="#ffffff" opacity="0.32"/><rect x="44.25" y="13.70" width="3.4" height="7.0" rx="1.7" ry="1.7" fill="#000000" opacity="0.4"/><rect x="43.35" y="12.30" width="3.4" height="7.0" rx="1.7" ry="1.7" fill="#ffffff" opacity="0.32"/><rect x="44.25" y="35.70" width="3.4" height="7.0" rx="1.7" ry="1.7" fill="#000000" opacity="0.4"/><rect x="43.35" y="34.30" width="3.4" height="7.0" rx="1.7" ry="1.7" fill="#ffffff" opacity="0.32"/></g></pattern>
  <radialGradient id="vig" cx="50%" cy="28%" r="85%"><stop offset="55%" stop-color="#000" stop-opacity="0"/><stop offset="100%" stop-color="#000" stop-opacity="0.26"/></radialGradient></defs>
  <rect width="800" height="600" fill="url(#base)"/><rect width="800" height="600" fill="url(#dash)" opacity="0.88"/>
  <g stroke-width="1.1"><line x1="104" y1="0" x2="104" y2="600" stroke="#000" stroke-opacity="0.18"/><line x1="208" y1="0" x2="208" y2="600" stroke="#000" stroke-opacity="0.18"/><line x1="312" y1="0" x2="312" y2="600" stroke="#000" stroke-opacity="0.18"/><line x1="416" y1="0" x2="416" y2="600" stroke="#000" stroke-opacity="0.18"/><line x1="520" y1="0" x2="520" y2="600" stroke="#000" stroke-opacity="0.18"/><line x1="624" y1="0" x2="624" y2="600" stroke="#000" stroke-opacity="0.18"/><line x1="728" y1="0" x2="728" y2="600" stroke="#000" stroke-opacity="0.18"/></g><rect width="800" height="600" fill="url(#vig)"/>
</svg>
